HIERARCHY
ROOT Hips
{
	OFFSET 0.000000 0.000000 0.000000 
	CHANNELS 6 Xposition Yposition Zposition Xrotation Yrotation Zrotation
	JOINT Spine
	{
		OFFSET 0.000000 1.152660 1.729000 
		CHANNELS 3 Xrotation Yrotation Zrotation
		JOINT Spine1
		{
			OFFSET 0.000000 0.400320 2.270310 
			CHANNELS 3 Xrotation Yrotation Zrotation
			JOINT Spine2
			{
				OFFSET 0.000000 0.200920 2.296560 
				CHANNELS 3 Xrotation Yrotation Zrotation
				JOINT Spine3
				{
					OFFSET 0.000000 0.000000 2.305330 
					CHANNELS 3 Xrotation Yrotation Zrotation
					JOINT Neck
					{
						OFFSET 0.000000 -0.864490 6.051490 
						CHANNELS 3 Xrotation Yrotation Zrotation
						JOINT Head
						{
							OFFSET 0.000000 -0.550430 3.121670 
							CHANNELS 3 Xrotation Yrotation Zrotation
							End Site
							{
								OFFSET 0.000000 0.000000 3.731750 
							}
						}
					}
					JOINT RightShoulder
					{
						OFFSET -0.788280 -1.313800 4.256720 
						CHANNELS 3 Xrotation Yrotation Zrotation
						JOINT RightArm
						{
							OFFSET -3.915130 0.000000 0.000000 
							CHANNELS 3 Xrotation Yrotation Zrotation
							JOINT RightForeArm
							{
								OFFSET -6.914910 0.000000 0.000000 
								CHANNELS 3 Xrotation Yrotation Zrotation
								JOINT RightHand
								{
									OFFSET -6.096220 0.000000 0.000000 
									CHANNELS 3 Xrotation Yrotation Zrotation
									JOINT RightHandEnd
									{
										OFFSET -1.749950 0.000000 0.000000 
										CHANNELS 3 Xrotation Yrotation Zrotation
										End Site
										{
											OFFSET -1.749950 0.000000 0.000000 
										}
									}
									JOINT RightHandThumb1
									{
										OFFSET -0.699980 -1.166630 -0.466650 
										CHANNELS 3 Yrotation Xrotation Zrotation
										End Site
										{
											OFFSET -1.690320 -0.452920 0.000000 
										}
									}
								}
							}
						}
					}
					JOINT LeftShoulder
					{
						OFFSET 0.788280 -1.313800 4.256720 
						CHANNELS 3 Xrotation Yrotation Zrotation
						JOINT LeftArm
						{
							OFFSET 3.915130 0.000000 0.000000 
							CHANNELS 3 Xrotation Yrotation Zrotation
							JOINT LeftForeArm
							{
								OFFSET 6.914910 0.000000 0.000000 
								CHANNELS 3 Xrotation Yrotation Zrotation
								JOINT LeftHand
								{
									OFFSET 6.096220 0.000000 0.000000 
									CHANNELS 3 Xrotation Yrotation Zrotation
									JOINT LeftHandEnd
									{
										OFFSET 1.749950 0.000000 0.000000 
										CHANNELS 3 Xrotation Yrotation Zrotation
										End Site
										{
											OFFSET 1.749950 0.000000 0.000000 
										}
									}
									JOINT LeftHandThumb1
									{
										OFFSET 0.699980 -1.166630 -0.466650 
										CHANNELS 3 Yrotation Xrotation Zrotation
										End Site
										{
											OFFSET 1.690320 -0.452920 0.000000 
										}
									}
								}
							}
						}
					}
				}
			}
		}
	}
	JOINT RightUpLeg
	{
		OFFSET -2.338570 0.000000 -0.683180 
		CHANNELS 3 Xrotation Yrotation Zrotation
		JOINT RightLeg
		{
			OFFSET 0.000000 0.000000 -10.744960 
			CHANNELS 3 Xrotation Yrotation Zrotation
			JOINT RightFoot
			{
				OFFSET 0.000000 0.000000 -10.930850 
				CHANNELS 3 Xrotation Yrotation Zrotation
				JOINT RightToeBase
				{
					OFFSET 0.000000 -4.087270 -1.487650 
					CHANNELS 3 Xrotation Yrotation Zrotation
					End Site
					{
						OFFSET 0.000000 -1.891870 -0.000000 
					}
				}
			}
		}
	}
	JOINT LeftUpLeg
	{
		OFFSET 2.338570 0.000000 -0.683180 
		CHANNELS 3 Xrotation Yrotation Zrotation
		JOINT LeftLeg
		{
			OFFSET 0.000000 0.000000 -10.744960 
			CHANNELS 3 Xrotation Yrotation Zrotation
			JOINT LeftFoot
			{
				OFFSET 0.000000 0.000000 -10.930850 
				CHANNELS 3 Xrotation Yrotation Zrotation
				JOINT LeftToeBase
				{
					OFFSET 0.000000 -4.087270 -1.487650 
					CHANNELS 3 Xrotation Yrotation Zrotation
					End Site
					{
						OFFSET 0.000000 -1.891870 -0.000000 
					}
				}
			}
		}
	}
}
MOTION
Frames: 9
Frame Time: 0.133849
0.108100 -113.864098 24.423599 -6.375000 0.799300 174.181305 -0.095300 1.789700 0.305300 -0.361400 0.276100 0.187700 0.799000 -0.140000 4.976700 -1.409600 -0.813900 1.497000 -2.534100 -3.367700 -3.314200 3.307800 -1.299000 -7.127800 -6.410600 -0.573900 -2.449200 -10.450800 -2.033900 10.058900 0.000000 0.000000 12.153800 0.063700 4.783100 -15.332200 0.000000 -0.000000 -0.000000 -0.000000 -0.000000 -0.000000 -9.310900 1.909700 0.211600 -6.000400 0.178200 -15.561000 -0.000000 0.000000 2.371100 6.226600 11.830600 4.971600 0.000000 -0.000000 0.000000 -0.000000 0.000000 0.000000 -15.130400 1.067200 -2.859500 12.268300 0.000000 0.000000 -4.257900 0.807900 4.609700 1.603100 0.000000 0.000000 -6.043000 1.706900 2.920300 1.276300 0.000000 0.000000 -5.258800 0.979700 4.886600 -10.132300 0.000000 -0.000000 
0.112600 -113.882004 24.423201 -6.205900 0.884400 173.626999 -0.144700 1.619400 0.349100 -0.435800 0.116100 0.202800 1.062700 0.461800 5.500600 -1.303000 -0.714000 1.445700 -2.560400 -3.267600 -4.095500 2.671200 -1.510400 -8.445600 -5.646400 -0.955400 -2.158000 -10.435700 -1.739800 10.135300 0.000000 0.000000 11.845200 -0.362400 4.820900 -15.221000 0.000000 -0.000000 0.000000 0.000000 -0.000000 -0.000000 -8.712500 2.604600 -0.059500 -6.116900 0.053200 -14.723100 -0.000000 0.000000 2.531600 6.183200 11.664500 5.011400 -0.000000 0.000000 -0.000000 -0.000000 0.000000 -0.000000 -15.027200 1.063900 -2.828800 12.161500 0.000000 0.000000 -4.098000 0.863900 5.112100 1.544600 0.000000 0.000000 -6.033100 1.754700 3.326300 1.600700 0.000000 0.000000 -5.460800 0.446600 5.118800 -9.117400 0.000000 -0.000000 
0.144600 -113.902702 24.421400 -6.121700 0.923900 173.795395 0.087700 1.819700 0.324200 -0.342500 0.190900 0.212000 1.228400 0.753000 5.350200 -1.449000 -0.713100 1.365900 -3.077300 -3.350100 -4.659500 2.747900 -1.750100 -9.342300 -5.353100 -0.908100 -2.316100 -10.128800 -2.113100 9.842400 0.000000 0.000000 11.388600 -0.470300 4.684300 -15.338900 -0.000000 0.000000 0.000000 0.000000 -0.000000 -0.000000 -8.504500 2.776500 0.064600 -5.926100 0.423900 -14.427300 -0.000000 0.000000 2.544400 6.065700 11.095600 5.303500 -0.000000 0.000000 -0.000000 -0.000000 -0.000000 0.000000 -15.149000 1.050800 -2.795700 12.504300 0.000000 0.000000 -4.190400 0.959100 4.920100 1.501500 0.000000 0.000000 -6.143700 1.715300 3.600700 1.853700 0.000000 0.000000 -5.461700 0.573400 4.685000 -9.123600 0.000000 -0.000000 
0.197700 -113.903603 24.425100 -6.047700 0.827700 173.399002 0.416800 1.971300 0.328800 -0.095800 0.242000 0.221800 0.823500 0.950500 5.381300 -1.666900 -0.723500 1.316000 -3.182600 -3.319900 -4.872800 2.810400 -1.711900 -9.849300 -5.306500 -1.488700 -2.601700 -10.063900 -1.540700 9.890000 0.000000 0.000000 11.226700 -0.378400 4.598000 -15.370000 0.000000 -0.000000 0.000000 0.000000 0.000000 -0.000000 -8.759800 3.374900 0.561100 -6.297500 -0.151600 -14.309300 -0.000000 0.000000 2.655100 5.678600 10.635000 5.617400 0.000000 -0.000000 0.000000 0.000000 0.000000 0.000000 -14.832000 0.759700 -2.914300 11.992900 0.000000 0.000000 -3.958400 1.108400 5.358200 1.516000 0.000000 0.000000 -5.893500 1.459300 3.343800 1.624000 0.000000 0.000000 -5.446600 0.671500 5.286300 -9.193800 0.000000 -0.000000 
0.304000 -113.917801 24.435101 -6.202700 0.596500 173.546799 0.640400 1.895000 0.341400 0.065400 0.155800 0.229100 0.645400 1.632800 5.297400 -1.844100 -0.602000 1.219000 -3.951700 -3.661600 -5.190700 2.867900 -1.667600 -10.143500 -5.646100 -2.212200 -2.763900 -10.146100 -1.199400 9.462200 0.000000 0.000000 11.338800 -0.319800 5.007300 -15.602800 0.000000 -0.000000 0.000000 0.000000 0.000000 0.000000 -9.053900 3.672300 0.560200 -7.110500 -1.140100 -14.397700 -0.000000 0.000000 2.944600 5.106000 9.714600 5.847300 -0.000000 0.000000 -0.000000 -0.000000 0.000000 0.000000 -14.394900 0.304700 -3.813200 10.906800 0.000000 0.000000 -3.473700 1.368500 6.007700 1.482000 0.000000 0.000000 -6.023800 0.945700 2.952300 1.581700 0.000000 0.000000 -5.421200 0.949200 5.491300 -9.297800 0.000000 -0.000000 
0.424500 -113.924103 24.451099 -6.604100 0.298900 173.719894 1.044700 1.844500 0.344500 0.327500 0.145300 0.236200 0.101000 1.741900 5.211200 -2.240600 -0.643700 1.149700 -4.499200 -3.037000 -5.199900 3.174800 -1.800300 -10.179000 -5.232900 -2.926500 -3.160600 -10.384000 -0.374000 10.124400 0.000000 0.000000 11.352300 -0.372100 5.042800 -15.703200 0.000000 0.000000 0.000000 -0.000000 -0.000000 -0.000000 -8.921600 4.055700 1.700400 -7.373700 -1.474500 -15.489000 -0.000000 0.000000 3.056600 5.109300 9.655100 6.043200 -0.000000 -0.000000 -0.000000 -0.000000 0.000000 0.000000 -13.546300 -0.291200 -5.228600 8.585600 0.000000 0.000000 -2.524800 1.655200 7.157700 1.478500 0.000000 0.000000 -6.290100 0.308200 2.298500 1.359000 0.000000 0.000000 -5.284900 1.254600 5.993900 -9.184600 0.000000 -0.000000 
0.539100 -113.921997 24.459900 -7.076500 0.110300 173.804398 1.500400 1.788600 0.309900 0.591600 0.089500 0.252600 -0.308300 1.826100 5.280300 -2.572200 -0.559400 1.194600 -5.104800 -2.402700 -5.582000 3.333700 -2.164000 -10.435700 -4.981900 -3.016200 -3.807700 -10.638800 -0.112800 10.475300 0.000000 0.000000 11.523900 -0.367400 5.193000 -15.738600 0.000000 0.000000 0.000000 0.000000 -0.000000 0.000000 -9.059900 3.784900 2.832600 -7.334200 -1.455200 -15.401400 -0.000000 0.000000 2.904200 5.180200 9.198700 6.385800 0.000000 -0.000000 -0.000000 0.000000 -0.000000 0.000000 -13.094200 -0.815600 -6.286100 6.887800 0.000000 0.000000 -1.818000 1.802300 8.051600 1.382200 0.000000 0.000000 -6.886600 -0.257700 2.812300 1.679300 0.000000 0.000000 -5.466000 1.633800 5.358700 -9.340800 0.000000 -0.000000 
0.569100 -113.876404 24.467100 -7.792200 -0.040900 174.397202 1.586400 1.328800 0.291500 0.710700 -0.232500 0.236200 -0.615100 2.310800 5.464800 -2.726500 -0.298300 1.115800 -4.994200 -2.262200 -4.848300 3.454300 -2.005000 -9.093900 -5.416700 -3.320400 -3.878300 -10.553400 0.477400 10.066200 0.000000 0.000000 11.258500 -0.681000 5.062000 -15.545800 -0.000000 0.000000 0.000000 0.000000 -0.000000 -0.000000 -9.276900 4.091100 2.949900 -6.849500 -1.553600 -14.899300 -0.000000 0.000000 2.926500 5.009100 8.338700 5.859000 -0.000000 0.000000 -0.000000 -0.000000 -0.000000 0.000000 -12.690500 -0.999300 -8.044400 5.055900 0.000000 0.000000 -1.184500 1.644300 9.176300 1.413200 0.000000 0.000000 -7.976000 -0.521300 3.259500 2.524800 0.000000 0.000000 -5.818300 1.848900 4.326800 -9.264900 0.000000 -0.000000 
0.475500 -113.799698 24.471300 -7.314300 -0.349200 174.920105 1.328900 1.047100 0.200400 0.247500 -0.455200 0.219100 1.931900 2.320600 5.862400 -2.626300 -0.108500 1.170400 -6.714600 -1.947400 -3.678700 3.582500 -1.999600 -7.294600 -5.078500 -2.606500 -2.070800 -10.317200 -0.832300 11.728700 0.000000 0.000000 10.803000 -0.424000 4.700900 -15.753100 0.000000 0.000000 0.000000 0.000000 -0.000000 -0.000000 -8.169800 4.179200 1.534900 -6.770100 -0.747300 -17.908899 -0.000000 0.000000 3.975300 4.562700 8.562800 6.216600 0.000000 0.000000 -0.000000 -0.000000 0.000000 0.000000 -12.078600 -0.863700 -8.786400 5.293900 0.000000 0.000000 -1.365300 1.321800 9.373800 1.780500 0.000000 0.000000 -8.810200 -0.571000 4.489300 5.395400 0.000000 0.000000 -6.991500 1.536100 2.602400 -8.764000 0.000000 -0.000000 
